<svg width="228" height="85" viewBox="0 0 228 85" fill="none" xmlns="http://www.w3.org/2000/svg">
<g id="face 2">
<path id="path7834" d="M77.5869 3.69598C77.5869 8.5224 76.6363 13.3015 74.7893 17.7606C72.9423 22.2196 70.2352 26.2712 66.8224 29.684C63.4096 33.0968 59.358 35.804 54.899 37.6509C50.4399 39.4979 45.6608 40.4486 40.8344 40.4486C36.008 40.4486 31.2288 39.4979 26.7698 37.6509C22.3107 35.804 18.2591 33.0968 14.8463 29.684C11.4335 26.2712 8.7264 22.2196 6.87941 17.7606C5.03242 13.3015 4.08178 8.5224 4.08179 3.69598" stroke="black" stroke-width="7.03" stroke-linecap="round" stroke-linejoin="round"/>
<path id="path7836" d="M223.899 3.69598C223.899 8.5224 222.949 13.3015 221.102 17.7606C219.255 22.2196 216.547 26.2712 213.135 29.684C209.722 33.0968 205.67 35.804 201.211 37.6509C196.752 39.4979 191.973 40.4486 187.147 40.4486C182.32 40.4486 177.541 39.4979 173.082 37.6509C168.623 35.804 164.571 33.0968 161.159 29.684C157.746 26.2712 155.039 22.2196 153.192 17.7606C151.345 13.3015 150.394 8.5224 150.394 3.69598" stroke="black" stroke-width="7.03" stroke-linecap="round" stroke-linejoin="round"/>
<path id="path7838" d="M141.522 52.6683C141.522 56.6079 140.746 60.509 139.238 64.1488C137.73 67.7886 135.521 71.0957 132.735 73.8815C129.949 76.6672 126.642 78.877 123.002 80.3846C119.362 81.8923 115.461 82.6683 111.522 82.6683C107.582 82.6683 103.681 81.8923 100.041 80.3846C96.4014 78.877 93.0942 76.6672 90.3085 73.8815C87.5227 71.0957 85.3129 67.7885 83.8053 64.1487C82.2977 60.509 81.5217 56.6079 81.5217 52.6683" stroke="black" stroke-width="3.77953" stroke-linecap="round" stroke-linejoin="round"/>
</g>
</svg>
